<?xml version="1.0" standalone="no"?>
<!DOCTYPE svg PUBLIC "-//W3C//DTD SVG 20010904//EN"
 "http://www.w3.org/TR/2001/REC-SVG-20010904/DTD/svg10.dtd">
<svg version="1.0" xmlns="http://www.w3.org/2000/svg"
 width="256.000000pt" height="256.000000pt" viewBox="0 0 256.000000 256.000000"
 preserveAspectRatio="xMidYMid meet">

<g transform="translate(0.000000,256.000000) scale(0.100000,-0.100000)"
fill="#000000" stroke="none">
<path d="M1 1408 c1 -939 3 -1145 13 -1108 18 66 32 89 89 148 54 55 77 65 77
33 0 -11 5 -23 10 -26 6 -3 10 -20 10 -36 0 -55 43 -120 95 -145 44 -21 73
-39 93 -57 10 -10 24 -17 30 -17 6 0 19 -10 29 -23 21 -26 94 -77 111 -77 6 0
16 -9 22 -20 5 -10 34 -32 63 -47 l52 -28 538 -3 539 -3 45 26 c25 14 52 25
60 25 8 0 28 11 45 25 16 14 39 25 51 25 12 1 38 14 57 30 19 17 39 30 46 30
6 0 22 15 34 34 13 18 36 42 52 52 33 22 104 111 118 149 6 15 10 41 11 58 0
36 31 119 46 124 6 2 29 -15 51 -38 42 -41 42 -42 42 -114 l0 -73 48 -51 c90
-96 82 -203 82 1104 l0 1155 -1280 0 -1280 0 1 -1152z m1304 912 c3 -5 21 -10
39 -10 23 0 40 -8 58 -29 24 -26 31 -28 72 -24 42 5 46 4 46 -16 0 -11 4 -21
8 -21 16 0 28 -45 22 -82 -7 -38 3 -58 27 -58 16 0 63 -73 63 -98 0 -9 9 -25
20 -35 11 -9 20 -25 20 -34 0 -10 7 -26 15 -36 12 -17 9 -22 -23 -54 -20 -19
-76 -55 -125 -79 -82 -42 -87 -46 -81 -71 6 -24 5 -25 -19 -21 -36 7 -47 -3
-54 -48 -3 -21 -11 -45 -17 -53 -12 -15 -16 -121 -5 -121 4 0 5 -9 2 -20 -3
-11 -11 -20 -19 -20 -17 0 -42 -49 -37 -72 5 -20 -33 -45 -40 -25 -3 9 -8 9
-16 1 -9 -8 -8 -14 4 -24 28 -23 18 -40 -25 -40 -39 0 -54 15 -26 26 8 3 12
12 9 20 -3 8 2 23 11 33 14 16 15 20 2 30 -10 8 -15 30 -14 61 0 27 -3 54 -7
60 -4 6 -9 27 -11 48 -2 20 -11 42 -19 48 -17 13 -20 34 -4 34 21 0 3 34 -21
40 -17 4 -26 14 -28 31 -2 20 -15 30 -58 49 -30 14 -61 35 -70 47 -8 13 -20
23 -28 23 -7 0 -32 14 -54 30 -23 17 -51 30 -62 30 -23 0 -26 6 -39 73 -9 48
-8 49 20 59 21 7 30 18 35 43 4 21 13 35 25 38 11 3 19 14 19 27 0 13 8 24 20
27 14 4 20 14 20 34 0 18 8 34 20 41 11 7 20 20 20 29 0 9 9 19 20 22 15 4 20
14 20 39 l0 33 23 -29 24 -29 6 29 c6 29 7 30 62 27 32 -1 70 4 88 12 39 17
54 18 62 5z m-374 -770 c26 -14 24 -28 -6 -52 -31 -24 -32 -36 -2 -40 12 -2
23 -10 23 -18 1 -8 3 -19 4 -25 8 -28 3 -51 -12 -63 -10 -7 -18 -22 -18 -32 0
-10 -5 -22 -10 -25 -6 -4 -17 -22 -25 -41 -8 -20 -19 -33 -24 -29 -6 3 -17
-10 -26 -29 -15 -31 -15 -37 -1 -64 9 -17 20 -33 25 -36 5 -3 8 -40 7 -82 -2
-52 2 -80 11 -89 17 -18 17 -42 -2 -49 -8 -3 -15 -12 -15 -21 0 -16 -12 -20
-24 -8 -14 14 -95 11 -100 -4 -3 -8 -11 -11 -17 -7 -6 3 -15 1 -19 -7 -7 -10
-11 -10 -24 0 -22 18 -20 31 4 31 21 0 27 14 11 24 -5 4 -11 1 -13 -6 -7 -19
-26 0 -34 34 -3 18 -14 38 -23 45 -13 10 -14 15 -4 32 10 16 9 22 -4 33 -9 7
-19 11 -22 8 -8 -7 -21 63 -14 74 4 5 -1 7 -10 3 -11 -4 -20 1 -27 12 -5 10
-20 21 -32 24 -13 4 -41 30 -62 58 -38 51 -38 52 -18 68 11 9 23 26 27 39 3
12 11 22 16 22 5 0 9 13 9 29 l0 30 103 1 c154 1 163 2 159 24 -3 14 1 16 17
11 16 -5 23 -1 31 20 6 17 14 23 22 19 14 -9 59 -13 71 -7 4 2 0 14 -8 26 -19
28 -19 33 5 57 23 23 25 23 51 10z m768 -21 c13 -13 20 -27 16 -37 -7 -19 11
-32 46 -32 18 0 29 -8 37 -25 12 -26 85 -65 124 -65 13 0 31 -7 41 -14 10 -8
27 -12 37 -9 12 3 22 -1 26 -11 3 -9 12 -16 18 -16 7 0 23 -11 35 -24 22 -23
22 -26 7 -47 -10 -15 -12 -26 -5 -35 6 -8 4 -21 -8 -43 -17 -30 -36 -37 -85
-33 -9 1 -20 -8 -24 -21 -3 -12 -17 -36 -30 -54 -13 -17 -24 -41 -24 -52 0
-14 -6 -21 -20 -21 -14 0 -20 -7 -21 -22 0 -22 -1 -22 -10 2 l-10 25 -14 -33
c-13 -29 -18 -32 -42 -26 -74 18 -93 54 -66 121 16 38 22 43 51 43 26 0 35 5
42 26 6 14 10 26 10 28 0 1 -12 2 -27 1 -23 0 -29 5 -31 27 -2 16 -15 36 -31
48 -16 10 -34 33 -41 49 -6 16 -18 32 -26 35 -8 3 -14 19 -14 35 0 16 -9 46
-21 65 -23 40 -21 87 7 117 22 24 25 24 53 -2z m-424 -359 c0 -9 -11 -16 -27
-18 -16 -2 -28 -9 -28 -16 0 -11 10 -10 52 0 66 18 78 17 78 -1 0 -8 12 -18
26 -21 17 -4 23 -11 20 -21 -3 -8 -6 -25 -6 -38 0 -18 -10 -28 -42 -43 -63
-29 -93 -32 -125 -11 -15 11 -36 19 -45 19 -22 0 -33 19 -19 33 6 6 11 23 11
38 0 15 5 31 10 34 6 3 10 16 10 29 0 31 9 37 50 34 23 -2 35 -8 35 -18z m20
-511 c43 0 65 -61 25 -74 -75 -24 -156 -6 -187 42 -14 21 -13 23 14 28 15 3
35 10 43 14 8 4 30 4 50 -1 19 -5 44 -9 55 -9z m-10 -182 c44 -3 100 -12 124
-21 24 -9 50 -16 58 -16 19 0 52 -40 53 -62 0 -9 -8 -30 -17 -48 -14 -23 -24
-30 -40 -27 -12 2 -24 -2 -27 -9 -3 -8 -12 -14 -20 -14 -7 0 -27 -7 -42 -15
-61 -31 -259 -10 -333 35 -26 16 -63 36 -82 45 -19 8 -43 21 -54 28 -11 6 -22
13 -23 14 -2 1 6 15 18 31 12 17 43 38 67 47 39 15 51 16 84 5 33 -11 44 -10
86 7 26 11 53 17 58 13 6 -5 46 -10 90 -13z"/>
<path d="M820 879 c0 -5 5 -7 10 -4 6 3 10 8 10 11 0 2 -4 4 -10 4 -5 0 -10
-5 -10 -11z"/>
</g>
</svg>
